# xmcd
#
# Track frame offsets:
#	150
#	15966
#	28314
#	44383
#	60014
#	74235
#	92474
#	110319
#	132263
#	147975
#	165631
#	181862
#	199443
#	218134
#	234716
#	248681
#	263221
#	281515
#
# Disc length: 3977 seconds
# Revision: 0
# Processed by: cddbd v1.5.2PL0 Copyright (c) Steve Scherf et al.
# Submitted via: dBpowerAMP V12.0
#
DISCID=020f8712
DTITLE=Various Artist - Country Radio November 2008
DYEAR=2008
DGENRE=Country
TTITLE0=Brooks and Dunn - Cowgirls Don`t Cry
TTITLE1=Jessie Farrell - I Guess
TTITLE2=Blake Shelton - She Wouldn`t Be Gone
TTITLE3=Julianne Hough - My Hallelujah Song
TTITLE4=Josh Cracin - Unbelievable Ann Marie
TTITLE5=Alan Jackson - Country Boy
TTITLE6=Aaron Lines - Let`s Get Drunk and Fight
TTITLE7=Faith Hill - A Baby Changes Everything
TTITLE8=Paul Brandt - Virtual Life
TTITLE9=Rascal Flatts - Here
TTITLE10=Whitney Duncan - When I Said I Would
TTITLE11=Taylor Swift - Love Story
TTITLE12=Ridley Bent - Buckles and Boots
TTITLE13=Jessica Simpson - Remember That
TTITLE14=Alex J Robinson - Don`t Waste My Time
TTITLE15=Jimmy Wayne - I Will
TTITLE16=Dean Brody - Brothers
TTITLE17=Duhks The - You Don`t See It
EXTD=
EXTT0=
EXTT1=
EXTT2=
EXTT3=
EXTT4=
EXTT5=
EXTT6=
EXTT7=
EXTT8=
EXTT9=
EXTT10=
EXTT11=
EXTT12=
EXTT13=
EXTT14=
EXTT15=
EXTT16=
EXTT17=
PLAYORDER=
